<?xml version="1.0" encoding="UTF-8" ?>
<svg xmlns="http://www.w3.org/2000/svg" version="1.1">
<polygon points="0,86.6 100,86.6 50,0" style="fill:white;stroke:black;stroke-width:1" />
<polygon points="0,86.6 50.0,86.6 25.0,43.3" style="fill:white;stroke:black;stroke-width:1" />
<polygon points="100,86.6 75.0,43.3 50.0,86.6" style="fill:white;stroke:black;stroke-width:1" />
<polygon points="50,0 25.0,43.3 75.0,43.3" style="fill:white;stroke:black;stroke-width:1" />
<polygon points="0,86.6 25.0,86.6 12.5,64.94999999999999" style="fill:white;stroke:black;stroke-width:1" />
<polygon points="50.0,86.6 37.5,64.94999999999999 25.0,86.6" style="fill:white;stroke:black;stroke-width:1" />
<polygon points="25.0,43.3 12.5,64.94999999999999 37.5,64.94999999999999" style="fill:white;stroke:black;stroke-width:1" />
<polygon points="0,86.6 12.5,86.6 6.25,75.77499999999999" style="fill:white;stroke:black;stroke-width:1" />
<polygon points="25.0,86.6 18.75,75.77499999999999 12.5,86.6" style="fill:white;stroke:black;stroke-width:1" />
<polygon points="12.5,64.94999999999999 6.25,75.77499999999999 18.75,75.77499999999999" style="fill:white;stroke:black;stroke-width:1" />
<polygon points="0,86.6 6.25,86.6 3.125,81.1875" style="fill:white;stroke:black;stroke-width:1" />
<polygon points="12.5,86.6 9.375,81.1875 6.25,86.6" style="fill:white;stroke:black;stroke-width:1" />
<polygon points="6.25,75.77499999999999 3.125,81.1875 9.375,81.1875" style="fill:white;stroke:black;stroke-width:1" />
<polygon points="0,86.6 3.125,86.6 1.5625,83.89375" style="fill:white;stroke:black;stroke-width:1" />
<polygon points="6.25,86.6 4.6875,83.89375 3.125,86.6" style="fill:white;stroke:black;stroke-width:1" />
<polygon points="3.125,81.1875 1.5625,83.89375 4.6875,83.89375" style="fill:white;stroke:black;stroke-width:1" />
<polygon points="12.5,86.6 10.9375,83.89375 9.375,86.6" style="fill:white;stroke:black;stroke-width:1" />
<polygon points="9.375,81.1875 7.8125,83.89375 10.9375,83.89375" style="fill:white;stroke:black;stroke-width:1" />
<polygon points="6.25,86.6 9.375,86.6 7.8125,83.89375" style="fill:white;stroke:black;stroke-width:1" />
<polygon points="6.25,75.77499999999999 4.6875,78.48124999999999 7.8125,78.48124999999999" style="fill:white;stroke:black;stroke-width:1" />
<polygon points="3.125,81.1875 6.25,81.1875 4.6875,78.48124999999999" style="fill:white;stroke:black;stroke-width:1" />
<polygon points="9.375,81.1875 7.8125,78.48124999999999 6.25,81.1875" style="fill:white;stroke:black;stroke-width:1" />
<polygon points="25.0,86.6 21.875,81.1875 18.75,86.6" style="fill:white;stroke:black;stroke-width:1" />
<polygon points="18.75,75.77499999999999 15.625,81.1875 21.875,81.1875" style="fill:white;stroke:black;stroke-width:1" />
<polygon points="12.5,86.6 18.75,86.6 15.625,81.1875" style="fill:white;stroke:black;stroke-width:1" />
<polygon points="25.0,86.6 23.4375,83.89375 21.875,86.6" style="fill:white;stroke:black;stroke-width:1" />
<polygon points="21.875,81.1875 20.3125,83.89375 23.4375,83.89375" style="fill:white;stroke:black;stroke-width:1" />
<polygon points="18.75,86.6 21.875,86.6 20.3125,83.89375" style="fill:white;stroke:black;stroke-width:1" />
<polygon points="18.75,75.77499999999999 17.1875,78.48124999999999 20.3125,78.48124999999999" style="fill:white;stroke:black;stroke-width:1" />
<polygon points="15.625,81.1875 18.75,81.1875 17.1875,78.48124999999999" style="fill:white;stroke:black;stroke-width:1" />
<polygon points="21.875,81.1875 20.3125,78.48124999999999 18.75,81.1875" style="fill:white;stroke:black;stroke-width:1" />
<polygon points="12.5,86.6 15.625,86.6 14.0625,83.89375" style="fill:white;stroke:black;stroke-width:1" />
<polygon points="18.75,86.6 17.1875,83.89375 15.625,86.6" style="fill:white;stroke:black;stroke-width:1" />
<polygon points="15.625,81.1875 14.0625,83.89375 17.1875,83.89375" style="fill:white;stroke:black;stroke-width:1" />
<polygon points="12.5,64.94999999999999 9.375,70.36249999999998 15.625,70.36249999999998" style="fill:white;stroke:black;stroke-width:1" />
<polygon points="6.25,75.77499999999999 12.5,75.77499999999999 9.375,70.36249999999998" style="fill:white;stroke:black;stroke-width:1" />
<polygon points="18.75,75.77499999999999 15.625,70.36249999999998 12.5,75.77499999999999" style="fill:white;stroke:black;stroke-width:1" />
<polygon points="12.5,64.94999999999999 10.9375,67.65624999999999 14.0625,67.65624999999999" style="fill:white;stroke:black;stroke-width:1" />
<polygon points="9.375,70.36249999999998 12.5,70.36249999999998 10.9375,67.65624999999999" style="fill:white;stroke:black;stroke-width:1" />
<polygon points="15.625,70.36249999999998 14.0625,67.65624999999999 12.5,70.36249999999998" style="fill:white;stroke:black;stroke-width:1" />
<polygon points="6.25,75.77499999999999 9.375,75.77499999999999 7.8125,73.06875" style="fill:white;stroke:black;stroke-width:1" />
<polygon points="12.5,75.77499999999999 10.9375,73.06875 9.375,75.77499999999999" style="fill:white;stroke:black;stroke-width:1" />
<polygon points="9.375,70.36249999999998 7.8125,73.06875 10.9375,73.06875" style="fill:white;stroke:black;stroke-width:1" />
<polygon points="18.75,75.77499999999999 17.1875,73.06875 15.625,75.77499999999999" style="fill:white;stroke:black;stroke-width:1" />
<polygon points="15.625,70.36249999999998 14.0625,73.06875 17.1875,73.06875" style="fill:white;stroke:black;stroke-width:1" />
<polygon points="12.5,75.77499999999999 15.625,75.77499999999999 14.0625,73.06875" style="fill:white;stroke:black;stroke-width:1" />
<polygon points="50.0,86.6 43.75,75.77499999999999 37.5,86.6" style="fill:white;stroke:black;stroke-width:1" />
<polygon points="37.5,64.94999999999999 31.25,75.77499999999999 43.75,75.77499999999999" style="fill:white;stroke:black;stroke-width:1" />
<polygon points="25.0,86.6 37.5,86.6 31.25,75.77499999999999" style="fill:white;stroke:black;stroke-width:1" />
<polygon points="50.0,86.6 46.875,81.1875 43.75,86.6" style="fill:white;stroke:black;stroke-width:1" />
<polygon points="43.75,75.77499999999999 40.625,81.1875 46.875,81.1875" style="fill:white;stroke:black;stroke-width:1" />
<polygon points="37.5,86.6 43.75,86.6 40.625,81.1875" style="fill:white;stroke:black;stroke-width:1" />
<polygon points="50.0,86.6 48.4375,83.89375 46.875,86.6" style="fill:white;stroke:black;stroke-width:1" />
<polygon points="46.875,81.1875 45.3125,83.89375 48.4375,83.89375" style="fill:white;stroke:black;stroke-width:1" />
<polygon points="43.75,86.6 46.875,86.6 45.3125,83.89375" style="fill:white;stroke:black;stroke-width:1" />
<polygon points="43.75,75.77499999999999 42.1875,78.48124999999999 45.3125,78.48124999999999" style="fill:white;stroke:black;stroke-width:1" />
<polygon points="40.625,81.1875 43.75,81.1875 42.1875,78.48124999999999" style="fill:white;stroke:black;stroke-width:1" />
<polygon points="46.875,81.1875 45.3125,78.48124999999999 43.75,81.1875" style="fill:white;stroke:black;stroke-width:1" />
<polygon points="37.5,86.6 40.625,86.6 39.0625,83.89375" style="fill:white;stroke:black;stroke-width:1" />
<polygon points="43.75,86.6 42.1875,83.89375 40.625,86.6" style="fill:white;stroke:black;stroke-width:1" />
<polygon points="40.625,81.1875 39.0625,83.89375 42.1875,83.89375" style="fill:white;stroke:black;stroke-width:1" />
<polygon points="37.5,64.94999999999999 34.375,70.36249999999998 40.625,70.36249999999998" style="fill:white;stroke:black;stroke-width:1" />
<polygon points="31.25,75.77499999999999 37.5,75.77499999999999 34.375,70.36249999999998" style="fill:white;stroke:black;stroke-width:1" />
<polygon points="43.75,75.77499999999999 40.625,70.36249999999998 37.5,75.77499999999999" style="fill:white;stroke:black;stroke-width:1" />
<polygon points="37.5,64.94999999999999 35.9375,67.65624999999999 39.0625,67.65624999999999" style="fill:white;stroke:black;stroke-width:1" />
<polygon points="34.375,70.36249999999998 37.5,70.36249999999998 35.9375,67.65624999999999" style="fill:white;stroke:black;stroke-width:1" />
<polygon points="40.625,70.36249999999998 39.0625,67.65624999999999 37.5,70.36249999999998" style="fill:white;stroke:black;stroke-width:1" />
<polygon points="31.25,75.77499999999999 34.375,75.77499999999999 32.8125,73.06875" style="fill:white;stroke:black;stroke-width:1" />
<polygon points="37.5,75.77499999999999 35.9375,73.06875 34.375,75.77499999999999" style="fill:white;stroke:black;stroke-width:1" />
<polygon points="34.375,70.36249999999998 32.8125,73.06875 35.9375,73.06875" style="fill:white;stroke:black;stroke-width:1" />
<polygon points="43.75,75.77499999999999 42.1875,73.06875 40.625,75.77499999999999" style="fill:white;stroke:black;stroke-width:1" />
<polygon points="40.625,70.36249999999998 39.0625,73.06875 42.1875,73.06875" style="fill:white;stroke:black;stroke-width:1" />
<polygon points="37.5,75.77499999999999 40.625,75.77499999999999 39.0625,73.06875" style="fill:white;stroke:black;stroke-width:1" />
<polygon points="25.0,86.6 31.25,86.6 28.125,81.1875" style="fill:white;stroke:black;stroke-width:1" />
<polygon points="37.5,86.6 34.375,81.1875 31.25,86.6" style="fill:white;stroke:black;stroke-width:1" />
<polygon points="31.25,75.77499999999999 28.125,81.1875 34.375,81.1875" style="fill:white;stroke:black;stroke-width:1" />
<polygon points="25.0,86.6 28.125,86.6 26.5625,83.89375" style="fill:white;stroke:black;stroke-width:1" />
<polygon points="31.25,86.6 29.6875,83.89375 28.125,86.6" style="fill:white;stroke:black;stroke-width:1" />
<polygon points="28.125,81.1875 26.5625,83.89375 29.6875,83.89375" style="fill:white;stroke:black;stroke-width:1" />
<polygon points="37.5,86.6 35.9375,83.89375 34.375,86.6" style="fill:white;stroke:black;stroke-width:1" />
<polygon points="34.375,81.1875 32.8125,83.89375 35.9375,83.89375" style="fill:white;stroke:black;stroke-width:1" />
<polygon points="31.25,86.6 34.375,86.6 32.8125,83.89375" style="fill:white;stroke:black;stroke-width:1" />
<polygon points="31.25,75.77499999999999 29.6875,78.48124999999999 32.8125,78.48124999999999" style="fill:white;stroke:black;stroke-width:1" />
<polygon points="28.125,81.1875 31.25,81.1875 29.6875,78.48124999999999" style="fill:white;stroke:black;stroke-width:1" />
<polygon points="34.375,81.1875 32.8125,78.48124999999999 31.25,81.1875" style="fill:white;stroke:black;stroke-width:1" />
<polygon points="25.0,43.3 18.75,54.12499999999999 31.25,54.12499999999999" style="fill:white;stroke:black;stroke-width:1" />
<polygon points="12.5,64.94999999999999 25.0,64.94999999999999 18.75,54.12499999999999" style="fill:white;stroke:black;stroke-width:1" />
<polygon points="37.5,64.94999999999999 31.25,54.12499999999999 25.0,64.94999999999999" style="fill:white;stroke:black;stroke-width:1" />
<polygon points="25.0,43.3 21.875,48.71249999999999 28.125,48.71249999999999" style="fill:white;stroke:black;stroke-width:1" />
<polygon points="18.75,54.12499999999999 25.0,54.12499999999999 21.875,48.71249999999999" style="fill:white;stroke:black;stroke-width:1" />
<polygon points="31.25,54.12499999999999 28.125,48.71249999999999 25.0,54.12499999999999" style="fill:white;stroke:black;stroke-width:1" />
<polygon points="25.0,43.3 23.4375,46.006249999999994 26.5625,46.006249999999994" style="fill:white;stroke:black;stroke-width:1" />
<polygon points="21.875,48.71249999999999 25.0,48.71249999999999 23.4375,46.006249999999994" style="fill:white;stroke:black;stroke-width:1" />
<polygon points="28.125,48.71249999999999 26.5625,46.006249999999994 25.0,48.71249999999999" style="fill:white;stroke:black;stroke-width:1" />
<polygon points="18.75,54.12499999999999 21.875,54.12499999999999 20.3125,51.41874999999999" style="fill:white;stroke:black;stroke-width:1" />
<polygon points="25.0,54.12499999999999 23.4375,51.41874999999999 21.875,54.12499999999999" style="fill:white;stroke:black;stroke-width:1" />
<polygon points="21.875,48.71249999999999 20.3125,51.41874999999999 23.4375,51.41874999999999" style="fill:white;stroke:black;stroke-width:1" />
<polygon points="31.25,54.12499999999999 29.6875,51.41874999999999 28.125,54.12499999999999" style="fill:white;stroke:black;stroke-width:1" />
<polygon points="28.125,48.71249999999999 26.5625,51.41874999999999 29.6875,51.41874999999999" style="fill:white;stroke:black;stroke-width:1" />
<polygon points="25.0,54.12499999999999 28.125,54.12499999999999 26.5625,51.41874999999999" style="fill:white;stroke:black;stroke-width:1" />
<polygon points="12.5,64.94999999999999 18.75,64.94999999999999 15.625,59.537499999999994" style="fill:white;stroke:black;stroke-width:1" />
<polygon points="25.0,64.94999999999999 21.875,59.537499999999994 18.75,64.94999999999999" style="fill:white;stroke:black;stroke-width:1" />
<polygon points="18.75,54.12499999999999 15.625,59.537499999999994 21.875,59.537499999999994" style="fill:white;stroke:black;stroke-width:1" />
<polygon points="12.5,64.94999999999999 15.625,64.94999999999999 14.0625,62.24374999999999" style="fill:white;stroke:black;stroke-width:1" />
<polygon points="18.75,64.94999999999999 17.1875,62.24374999999999 15.625,64.94999999999999" style="fill:white;stroke:black;stroke-width:1" />
<polygon points="15.625,59.537499999999994 14.0625,62.24374999999999 17.1875,62.24374999999999" style="fill:white;stroke:black;stroke-width:1" />
<polygon points="25.0,64.94999999999999 23.4375,62.24374999999999 21.875,64.94999999999999" style="fill:white;stroke:black;stroke-width:1" />
<polygon points="21.875,59.537499999999994 20.3125,62.24374999999999 23.4375,62.24374999999999" style="fill:white;stroke:black;stroke-width:1" />
<polygon points="18.75,64.94999999999999 21.875,64.94999999999999 20.3125,62.24374999999999" style="fill:white;stroke:black;stroke-width:1" />
<polygon points="18.75,54.12499999999999 17.1875,56.83125 20.3125,56.83125" style="fill:white;stroke:black;stroke-width:1" />
<polygon points="15.625,59.537499999999994 18.75,59.537499999999994 17.1875,56.83125" style="fill:white;stroke:black;stroke-width:1" />
<polygon points="21.875,59.537499999999994 20.3125,56.83125 18.75,59.537499999999994" style="fill:white;stroke:black;stroke-width:1" />
<polygon points="37.5,64.94999999999999 34.375,59.537499999999994 31.25,64.94999999999999" style="fill:white;stroke:black;stroke-width:1" />
<polygon points="31.25,54.12499999999999 28.125,59.537499999999994 34.375,59.537499999999994" style="fill:white;stroke:black;stroke-width:1" />
<polygon points="25.0,64.94999999999999 31.25,64.94999999999999 28.125,59.537499999999994" style="fill:white;stroke:black;stroke-width:1" />
<polygon points="37.5,64.94999999999999 35.9375,62.24374999999999 34.375,64.94999999999999" style="fill:white;stroke:black;stroke-width:1" />
<polygon points="34.375,59.537499999999994 32.8125,62.24374999999999 35.9375,62.24374999999999" style="fill:white;stroke:black;stroke-width:1" />
<polygon points="31.25,64.94999999999999 34.375,64.94999999999999 32.8125,62.24374999999999" style="fill:white;stroke:black;stroke-width:1" />
<polygon points="31.25,54.12499999999999 29.6875,56.83125 32.8125,56.83125" style="fill:white;stroke:black;stroke-width:1" />
<polygon points="28.125,59.537499999999994 31.25,59.537499999999994 29.6875,56.83125" style="fill:white;stroke:black;stroke-width:1" />
<polygon points="34.375,59.537499999999994 32.8125,56.83125 31.25,59.537499999999994" style="fill:white;stroke:black;stroke-width:1" />
<polygon points="25.0,64.94999999999999 28.125,64.94999999999999 26.5625,62.24374999999999" style="fill:white;stroke:black;stroke-width:1" />
<polygon points="31.25,64.94999999999999 29.6875,62.24374999999999 28.125,64.94999999999999" style="fill:white;stroke:black;stroke-width:1" />
<polygon points="28.125,59.537499999999994 26.5625,62.24374999999999 29.6875,62.24374999999999" style="fill:white;stroke:black;stroke-width:1" />
<polygon points="100,86.6 87.5,64.94999999999999 75.0,86.6" style="fill:white;stroke:black;stroke-width:1" />
<polygon points="75.0,43.3 62.5,64.94999999999999 87.5,64.94999999999999" style="fill:white;stroke:black;stroke-width:1" />
<polygon points="50.0,86.6 75.0,86.6 62.5,64.94999999999999" style="fill:white;stroke:black;stroke-width:1" />
<polygon points="100,86.6 93.75,75.77499999999999 87.5,86.6" style="fill:white;stroke:black;stroke-width:1" />
<polygon points="87.5,64.94999999999999 81.25,75.77499999999999 93.75,75.77499999999999" style="fill:white;stroke:black;stroke-width:1" />
<polygon points="75.0,86.6 87.5,86.6 81.25,75.77499999999999" style="fill:white;stroke:black;stroke-width:1" />
<polygon points="100,86.6 96.875,81.1875 93.75,86.6" style="fill:white;stroke:black;stroke-width:1" />
<polygon points="93.75,75.77499999999999 90.625,81.1875 96.875,81.1875" style="fill:white;stroke:black;stroke-width:1" />
<polygon points="87.5,86.6 93.75,86.6 90.625,81.1875" style="fill:white;stroke:black;stroke-width:1" />
<polygon points="100,86.6 98.4375,83.89375 96.875,86.6" style="fill:white;stroke:black;stroke-width:1" />
<polygon points="96.875,81.1875 95.3125,83.89375 98.4375,83.89375" style="fill:white;stroke:black;stroke-width:1" />
<polygon points="93.75,86.6 96.875,86.6 95.3125,83.89375" style="fill:white;stroke:black;stroke-width:1" />
<polygon points="93.75,75.77499999999999 92.1875,78.48124999999999 95.3125,78.48124999999999" style="fill:white;stroke:black;stroke-width:1" />
<polygon points="90.625,81.1875 93.75,81.1875 92.1875,78.48124999999999" style="fill:white;stroke:black;stroke-width:1" />
<polygon points="96.875,81.1875 95.3125,78.48124999999999 93.75,81.1875" style="fill:white;stroke:black;stroke-width:1" />
<polygon points="87.5,86.6 90.625,86.6 89.0625,83.89375" style="fill:white;stroke:black;stroke-width:1" />
<polygon points="93.75,86.6 92.1875,83.89375 90.625,86.6" style="fill:white;stroke:black;stroke-width:1" />
<polygon points="90.625,81.1875 89.0625,83.89375 92.1875,83.89375" style="fill:white;stroke:black;stroke-width:1" />
<polygon points="87.5,64.94999999999999 84.375,70.36249999999998 90.625,70.36249999999998" style="fill:white;stroke:black;stroke-width:1" />
<polygon points="81.25,75.77499999999999 87.5,75.77499999999999 84.375,70.36249999999998" style="fill:white;stroke:black;stroke-width:1" />
<polygon points="93.75,75.77499999999999 90.625,70.36249999999998 87.5,75.77499999999999" style="fill:white;stroke:black;stroke-width:1" />
<polygon points="87.5,64.94999999999999 85.9375,67.65624999999999 89.0625,67.65624999999999" style="fill:white;stroke:black;stroke-width:1" />
<polygon points="84.375,70.36249999999998 87.5,70.36249999999998 85.9375,67.65624999999999" style="fill:white;stroke:black;stroke-width:1" />
<polygon points="90.625,70.36249999999998 89.0625,67.65624999999999 87.5,70.36249999999998" style="fill:white;stroke:black;stroke-width:1" />
<polygon points="81.25,75.77499999999999 84.375,75.77499999999999 82.8125,73.06875" style="fill:white;stroke:black;stroke-width:1" />
<polygon points="87.5,75.77499999999999 85.9375,73.06875 84.375,75.77499999999999" style="fill:white;stroke:black;stroke-width:1" />
<polygon points="84.375,70.36249999999998 82.8125,73.06875 85.9375,73.06875" style="fill:white;stroke:black;stroke-width:1" />
<polygon points="93.75,75.77499999999999 92.1875,73.06875 90.625,75.77499999999999" style="fill:white;stroke:black;stroke-width:1" />
<polygon points="90.625,70.36249999999998 89.0625,73.06875 92.1875,73.06875" style="fill:white;stroke:black;stroke-width:1" />
<polygon points="87.5,75.77499999999999 90.625,75.77499999999999 89.0625,73.06875" style="fill:white;stroke:black;stroke-width:1" />
<polygon points="75.0,86.6 81.25,86.6 78.125,81.1875" style="fill:white;stroke:black;stroke-width:1" />
<polygon points="87.5,86.6 84.375,81.1875 81.25,86.6" style="fill:white;stroke:black;stroke-width:1" />
<polygon points="81.25,75.77499999999999 78.125,81.1875 84.375,81.1875" style="fill:white;stroke:black;stroke-width:1" />
<polygon points="75.0,86.6 78.125,86.6 76.5625,83.89375" style="fill:white;stroke:black;stroke-width:1" />
<polygon points="81.25,86.6 79.6875,83.89375 78.125,86.6" style="fill:white;stroke:black;stroke-width:1" />
<polygon points="78.125,81.1875 76.5625,83.89375 79.6875,83.89375" style="fill:white;stroke:black;stroke-width:1" />
<polygon points="87.5,86.6 85.9375,83.89375 84.375,86.6" style="fill:white;stroke:black;stroke-width:1" />
<polygon points="84.375,81.1875 82.8125,83.89375 85.9375,83.89375" style="fill:white;stroke:black;stroke-width:1" />
<polygon points="81.25,86.6 84.375,86.6 82.8125,83.89375" style="fill:white;stroke:black;stroke-width:1" />
<polygon points="81.25,75.77499999999999 79.6875,78.48124999999999 82.8125,78.48124999999999" style="fill:white;stroke:black;stroke-width:1" />
<polygon points="78.125,81.1875 81.25,81.1875 79.6875,78.48124999999999" style="fill:white;stroke:black;stroke-width:1" />
<polygon points="84.375,81.1875 82.8125,78.48124999999999 81.25,81.1875" style="fill:white;stroke:black;stroke-width:1" />
<polygon points="75.0,43.3 68.75,54.12499999999999 81.25,54.12499999999999" style="fill:white;stroke:black;stroke-width:1" />
<polygon points="62.5,64.94999999999999 75.0,64.94999999999999 68.75,54.12499999999999" style="fill:white;stroke:black;stroke-width:1" />
<polygon points="87.5,64.94999999999999 81.25,54.12499999999999 75.0,64.94999999999999" style="fill:white;stroke:black;stroke-width:1" />
<polygon points="75.0,43.3 71.875,48.71249999999999 78.125,48.71249999999999" style="fill:white;stroke:black;stroke-width:1" />
<polygon points="68.75,54.12499999999999 75.0,54.12499999999999 71.875,48.71249999999999" style="fill:white;stroke:black;stroke-width:1" />
<polygon points="81.25,54.12499999999999 78.125,48.71249999999999 75.0,54.12499999999999" style="fill:white;stroke:black;stroke-width:1" />
<polygon points="75.0,43.3 73.4375,46.006249999999994 76.5625,46.006249999999994" style="fill:white;stroke:black;stroke-width:1" />
<polygon points="71.875,48.71249999999999 75.0,48.71249999999999 73.4375,46.006249999999994" style="fill:white;stroke:black;stroke-width:1" />
<polygon points="78.125,48.71249999999999 76.5625,46.006249999999994 75.0,48.71249999999999" style="fill:white;stroke:black;stroke-width:1" />
<polygon points="68.75,54.12499999999999 71.875,54.12499999999999 70.3125,51.41874999999999" style="fill:white;stroke:black;stroke-width:1" />
<polygon points="75.0,54.12499999999999 73.4375,51.41874999999999 71.875,54.12499999999999" style="fill:white;stroke:black;stroke-width:1" />
<polygon points="71.875,48.71249999999999 70.3125,51.41874999999999 73.4375,51.41874999999999" style="fill:white;stroke:black;stroke-width:1" />
<polygon points="81.25,54.12499999999999 79.6875,51.41874999999999 78.125,54.12499999999999" style="fill:white;stroke:black;stroke-width:1" />
<polygon points="78.125,48.71249999999999 76.5625,51.41874999999999 79.6875,51.41874999999999" style="fill:white;stroke:black;stroke-width:1" />
<polygon points="75.0,54.12499999999999 78.125,54.12499999999999 76.5625,51.41874999999999" style="fill:white;stroke:black;stroke-width:1" />
<polygon points="62.5,64.94999999999999 68.75,64.94999999999999 65.625,59.537499999999994" style="fill:white;stroke:black;stroke-width:1" />
<polygon points="75.0,64.94999999999999 71.875,59.537499999999994 68.75,64.94999999999999" style="fill:white;stroke:black;stroke-width:1" />
<polygon points="68.75,54.12499999999999 65.625,59.537499999999994 71.875,59.537499999999994" style="fill:white;stroke:black;stroke-width:1" />
<polygon points="62.5,64.94999999999999 65.625,64.94999999999999 64.0625,62.24374999999999" style="fill:white;stroke:black;stroke-width:1" />
<polygon points="68.75,64.94999999999999 67.1875,62.24374999999999 65.625,64.94999999999999" style="fill:white;stroke:black;stroke-width:1" />
<polygon points="65.625,59.537499999999994 64.0625,62.24374999999999 67.1875,62.24374999999999" style="fill:white;stroke:black;stroke-width:1" />
<polygon points="75.0,64.94999999999999 73.4375,62.24374999999999 71.875,64.94999999999999" style="fill:white;stroke:black;stroke-width:1" />
<polygon points="71.875,59.537499999999994 70.3125,62.24374999999999 73.4375,62.24374999999999" style="fill:white;stroke:black;stroke-width:1" />
<polygon points="68.75,64.94999999999999 71.875,64.94999999999999 70.3125,62.24374999999999" style="fill:white;stroke:black;stroke-width:1" />
<polygon points="68.75,54.12499999999999 67.1875,56.83125 70.3125,56.83125" style="fill:white;stroke:black;stroke-width:1" />
<polygon points="65.625,59.537499999999994 68.75,59.537499999999994 67.1875,56.83125" style="fill:white;stroke:black;stroke-width:1" />
<polygon points="71.875,59.537499999999994 70.3125,56.83125 68.75,59.537499999999994" style="fill:white;stroke:black;stroke-width:1" />
<polygon points="87.5,64.94999999999999 84.375,59.537499999999994 81.25,64.94999999999999" style="fill:white;stroke:black;stroke-width:1" />
<polygon points="81.25,54.12499999999999 78.125,59.537499999999994 84.375,59.537499999999994" style="fill:white;stroke:black;stroke-width:1" />
<polygon points="75.0,64.94999999999999 81.25,64.94999999999999 78.125,59.537499999999994" style="fill:white;stroke:black;stroke-width:1" />
<polygon points="87.5,64.94999999999999 85.9375,62.24374999999999 84.375,64.94999999999999" style="fill:white;stroke:black;stroke-width:1" />
<polygon points="84.375,59.537499999999994 82.8125,62.24374999999999 85.9375,62.24374999999999" style="fill:white;stroke:black;stroke-width:1" />
<polygon points="81.25,64.94999999999999 84.375,64.94999999999999 82.8125,62.24374999999999" style="fill:white;stroke:black;stroke-width:1" />
<polygon points="81.25,54.12499999999999 79.6875,56.83125 82.8125,56.83125" style="fill:white;stroke:black;stroke-width:1" />
<polygon points="78.125,59.537499999999994 81.25,59.537499999999994 79.6875,56.83125" style="fill:white;stroke:black;stroke-width:1" />
<polygon points="84.375,59.537499999999994 82.8125,56.83125 81.25,59.537499999999994" style="fill:white;stroke:black;stroke-width:1" />
<polygon points="75.0,64.94999999999999 78.125,64.94999999999999 76.5625,62.24374999999999" style="fill:white;stroke:black;stroke-width:1" />
<polygon points="81.25,64.94999999999999 79.6875,62.24374999999999 78.125,64.94999999999999" style="fill:white;stroke:black;stroke-width:1" />
<polygon points="78.125,59.537499999999994 76.5625,62.24374999999999 79.6875,62.24374999999999" style="fill:white;stroke:black;stroke-width:1" />
<polygon points="50.0,86.6 62.5,86.6 56.25,75.77499999999999" style="fill:white;stroke:black;stroke-width:1" />
<polygon points="75.0,86.6 68.75,75.77499999999999 62.5,86.6" style="fill:white;stroke:black;stroke-width:1" />
<polygon points="62.5,64.94999999999999 56.25,75.77499999999999 68.75,75.77499999999999" style="fill:white;stroke:black;stroke-width:1" />
<polygon points="50.0,86.6 56.25,86.6 53.125,81.1875" style="fill:white;stroke:black;stroke-width:1" />
<polygon points="62.5,86.6 59.375,81.1875 56.25,86.6" style="fill:white;stroke:black;stroke-width:1" />
<polygon points="56.25,75.77499999999999 53.125,81.1875 59.375,81.1875" style="fill:white;stroke:black;stroke-width:1" />
<polygon points="50.0,86.6 53.125,86.6 51.5625,83.89375" style="fill:white;stroke:black;stroke-width:1" />
<polygon points="56.25,86.6 54.6875,83.89375 53.125,86.6" style="fill:white;stroke:black;stroke-width:1" />
<polygon points="53.125,81.1875 51.5625,83.89375 54.6875,83.89375" style="fill:white;stroke:black;stroke-width:1" />
<polygon points="62.5,86.6 60.9375,83.89375 59.375,86.6" style="fill:white;stroke:black;stroke-width:1" />
<polygon points="59.375,81.1875 57.8125,83.89375 60.9375,83.89375" style="fill:white;stroke:black;stroke-width:1" />
<polygon points="56.25,86.6 59.375,86.6 57.8125,83.89375" style="fill:white;stroke:black;stroke-width:1" />
<polygon points="56.25,75.77499999999999 54.6875,78.48124999999999 57.8125,78.48124999999999" style="fill:white;stroke:black;stroke-width:1" />
<polygon points="53.125,81.1875 56.25,81.1875 54.6875,78.48124999999999" style="fill:white;stroke:black;stroke-width:1" />
<polygon points="59.375,81.1875 57.8125,78.48124999999999 56.25,81.1875" style="fill:white;stroke:black;stroke-width:1" />
<polygon points="75.0,86.6 71.875,81.1875 68.75,86.6" style="fill:white;stroke:black;stroke-width:1" />
<polygon points="68.75,75.77499999999999 65.625,81.1875 71.875,81.1875" style="fill:white;stroke:black;stroke-width:1" />
<polygon points="62.5,86.6 68.75,86.6 65.625,81.1875" style="fill:white;stroke:black;stroke-width:1" />
<polygon points="75.0,86.6 73.4375,83.89375 71.875,86.6" style="fill:white;stroke:black;stroke-width:1" />
<polygon points="71.875,81.1875 70.3125,83.89375 73.4375,83.89375" style="fill:white;stroke:black;stroke-width:1" />
<polygon points="68.75,86.6 71.875,86.6 70.3125,83.89375" style="fill:white;stroke:black;stroke-width:1" />
<polygon points="68.75,75.77499999999999 67.1875,78.48124999999999 70.3125,78.48124999999999" style="fill:white;stroke:black;stroke-width:1" />
<polygon points="65.625,81.1875 68.75,81.1875 67.1875,78.48124999999999" style="fill:white;stroke:black;stroke-width:1" />
<polygon points="71.875,81.1875 70.3125,78.48124999999999 68.75,81.1875" style="fill:white;stroke:black;stroke-width:1" />
<polygon points="62.5,86.6 65.625,86.6 64.0625,83.89375" style="fill:white;stroke:black;stroke-width:1" />
<polygon points="68.75,86.6 67.1875,83.89375 65.625,86.6" style="fill:white;stroke:black;stroke-width:1" />
<polygon points="65.625,81.1875 64.0625,83.89375 67.1875,83.89375" style="fill:white;stroke:black;stroke-width:1" />
<polygon points="62.5,64.94999999999999 59.375,70.36249999999998 65.625,70.36249999999998" style="fill:white;stroke:black;stroke-width:1" />
<polygon points="56.25,75.77499999999999 62.5,75.77499999999999 59.375,70.36249999999998" style="fill:white;stroke:black;stroke-width:1" />
<polygon points="68.75,75.77499999999999 65.625,70.36249999999998 62.5,75.77499999999999" style="fill:white;stroke:black;stroke-width:1" />
<polygon points="62.5,64.94999999999999 60.9375,67.65624999999999 64.0625,67.65624999999999" style="fill:white;stroke:black;stroke-width:1" />
<polygon points="59.375,70.36249999999998 62.5,70.36249999999998 60.9375,67.65624999999999" style="fill:white;stroke:black;stroke-width:1" />
<polygon points="65.625,70.36249999999998 64.0625,67.65624999999999 62.5,70.36249999999998" style="fill:white;stroke:black;stroke-width:1" />
<polygon points="56.25,75.77499999999999 59.375,75.77499999999999 57.8125,73.06875" style="fill:white;stroke:black;stroke-width:1" />
<polygon points="62.5,75.77499999999999 60.9375,73.06875 59.375,75.77499999999999" style="fill:white;stroke:black;stroke-width:1" />
<polygon points="59.375,70.36249999999998 57.8125,73.06875 60.9375,73.06875" style="fill:white;stroke:black;stroke-width:1" />
<polygon points="68.75,75.77499999999999 67.1875,73.06875 65.625,75.77499999999999" style="fill:white;stroke:black;stroke-width:1" />
<polygon points="65.625,70.36249999999998 64.0625,73.06875 67.1875,73.06875" style="fill:white;stroke:black;stroke-width:1" />
<polygon points="62.5,75.77499999999999 65.625,75.77499999999999 64.0625,73.06875" style="fill:white;stroke:black;stroke-width:1" />
<polygon points="50,0 37.5,21.65 62.5,21.65" style="fill:white;stroke:black;stroke-width:1" />
<polygon points="25.0,43.3 50.0,43.3 37.5,21.65" style="fill:white;stroke:black;stroke-width:1" />
<polygon points="75.0,43.3 62.5,21.65 50.0,43.3" style="fill:white;stroke:black;stroke-width:1" />
<polygon points="50,0 43.75,10.825 56.25,10.825" style="fill:white;stroke:black;stroke-width:1" />
<polygon points="37.5,21.65 50.0,21.65 43.75,10.825" style="fill:white;stroke:black;stroke-width:1" />
<polygon points="62.5,21.65 56.25,10.825 50.0,21.65" style="fill:white;stroke:black;stroke-width:1" />
<polygon points="50,0 46.875,5.4125 53.125,5.4125" style="fill:white;stroke:black;stroke-width:1" />
<polygon points="43.75,10.825 50.0,10.825 46.875,5.4125" style="fill:white;stroke:black;stroke-width:1" />
<polygon points="56.25,10.825 53.125,5.4125 50.0,10.825" style="fill:white;stroke:black;stroke-width:1" />
<polygon points="50,0 48.4375,2.70625 51.5625,2.70625" style="fill:white;stroke:black;stroke-width:1" />
<polygon points="46.875,5.4125 50.0,5.4125 48.4375,2.70625" style="fill:white;stroke:black;stroke-width:1" />
<polygon points="53.125,5.4125 51.5625,2.70625 50.0,5.4125" style="fill:white;stroke:black;stroke-width:1" />
<polygon points="43.75,10.825 46.875,10.825 45.3125,8.118749999999999" style="fill:white;stroke:black;stroke-width:1" />
<polygon points="50.0,10.825 48.4375,8.118749999999999 46.875,10.825" style="fill:white;stroke:black;stroke-width:1" />
<polygon points="46.875,5.4125 45.3125,8.118749999999999 48.4375,8.118749999999999" style="fill:white;stroke:black;stroke-width:1" />
<polygon points="56.25,10.825 54.6875,8.118749999999999 53.125,10.825" style="fill:white;stroke:black;stroke-width:1" />
<polygon points="53.125,5.4125 51.5625,8.118749999999999 54.6875,8.118749999999999" style="fill:white;stroke:black;stroke-width:1" />
<polygon points="50.0,10.825 53.125,10.825 51.5625,8.118749999999999" style="fill:white;stroke:black;stroke-width:1" />
<polygon points="37.5,21.65 43.75,21.65 40.625,16.237499999999997" style="fill:white;stroke:black;stroke-width:1" />
<polygon points="50.0,21.65 46.875,16.237499999999997 43.75,21.65" style="fill:white;stroke:black;stroke-width:1" />
<polygon points="43.75,10.825 40.625,16.237499999999997 46.875,16.237499999999997" style="fill:white;stroke:black;stroke-width:1" />
<polygon points="37.5,21.65 40.625,21.65 39.0625,18.943749999999998" style="fill:white;stroke:black;stroke-width:1" />
<polygon points="43.75,21.65 42.1875,18.943749999999998 40.625,21.65" style="fill:white;stroke:black;stroke-width:1" />
<polygon points="40.625,16.237499999999997 39.0625,18.943749999999998 42.1875,18.943749999999998" style="fill:white;stroke:black;stroke-width:1" />
<polygon points="50.0,21.65 48.4375,18.943749999999998 46.875,21.65" style="fill:white;stroke:black;stroke-width:1" />
<polygon points="46.875,16.237499999999997 45.3125,18.943749999999998 48.4375,18.943749999999998" style="fill:white;stroke:black;stroke-width:1" />
<polygon points="43.75,21.65 46.875,21.65 45.3125,18.943749999999998" style="fill:white;stroke:black;stroke-width:1" />
<polygon points="43.75,10.825 42.1875,13.531249999999998 45.3125,13.531249999999998" style="fill:white;stroke:black;stroke-width:1" />
<polygon points="40.625,16.237499999999997 43.75,16.237499999999997 42.1875,13.531249999999998" style="fill:white;stroke:black;stroke-width:1" />
<polygon points="46.875,16.237499999999997 45.3125,13.531249999999998 43.75,16.237499999999997" style="fill:white;stroke:black;stroke-width:1" />
<polygon points="62.5,21.65 59.375,16.237499999999997 56.25,21.65" style="fill:white;stroke:black;stroke-width:1" />
<polygon points="56.25,10.825 53.125,16.237499999999997 59.375,16.237499999999997" style="fill:white;stroke:black;stroke-width:1" />
<polygon points="50.0,21.65 56.25,21.65 53.125,16.237499999999997" style="fill:white;stroke:black;stroke-width:1" />
<polygon points="62.5,21.65 60.9375,18.943749999999998 59.375,21.65" style="fill:white;stroke:black;stroke-width:1" />
<polygon points="59.375,16.237499999999997 57.8125,18.943749999999998 60.9375,18.943749999999998" style="fill:white;stroke:black;stroke-width:1" />
<polygon points="56.25,21.65 59.375,21.65 57.8125,18.943749999999998" style="fill:white;stroke:black;stroke-width:1" />
<polygon points="56.25,10.825 54.6875,13.531249999999998 57.8125,13.531249999999998" style="fill:white;stroke:black;stroke-width:1" />
<polygon points="53.125,16.237499999999997 56.25,16.237499999999997 54.6875,13.531249999999998" style="fill:white;stroke:black;stroke-width:1" />
<polygon points="59.375,16.237499999999997 57.8125,13.531249999999998 56.25,16.237499999999997" style="fill:white;stroke:black;stroke-width:1" />
<polygon points="50.0,21.65 53.125,21.65 51.5625,18.943749999999998" style="fill:white;stroke:black;stroke-width:1" />
<polygon points="56.25,21.65 54.6875,18.943749999999998 53.125,21.65" style="fill:white;stroke:black;stroke-width:1" />
<polygon points="53.125,16.237499999999997 51.5625,18.943749999999998 54.6875,18.943749999999998" style="fill:white;stroke:black;stroke-width:1" />
<polygon points="25.0,43.3 37.5,43.3 31.25,32.474999999999994" style="fill:white;stroke:black;stroke-width:1" />
<polygon points="50.0,43.3 43.75,32.474999999999994 37.5,43.3" style="fill:white;stroke:black;stroke-width:1" />
<polygon points="37.5,21.65 31.25,32.474999999999994 43.75,32.474999999999994" style="fill:white;stroke:black;stroke-width:1" />
<polygon points="25.0,43.3 31.25,43.3 28.125,37.887499999999996" style="fill:white;stroke:black;stroke-width:1" />
<polygon points="37.5,43.3 34.375,37.887499999999996 31.25,43.3" style="fill:white;stroke:black;stroke-width:1" />
<polygon points="31.25,32.474999999999994 28.125,37.887499999999996 34.375,37.887499999999996" style="fill:white;stroke:black;stroke-width:1" />
<polygon points="25.0,43.3 28.125,43.3 26.5625,40.59375" style="fill:white;stroke:black;stroke-width:1" />
<polygon points="31.25,43.3 29.6875,40.59375 28.125,43.3" style="fill:white;stroke:black;stroke-width:1" />
<polygon points="28.125,37.887499999999996 26.5625,40.59375 29.6875,40.59375" style="fill:white;stroke:black;stroke-width:1" />
<polygon points="37.5,43.3 35.9375,40.59375 34.375,43.3" style="fill:white;stroke:black;stroke-width:1" />
<polygon points="34.375,37.887499999999996 32.8125,40.59375 35.9375,40.59375" style="fill:white;stroke:black;stroke-width:1" />
<polygon points="31.25,43.3 34.375,43.3 32.8125,40.59375" style="fill:white;stroke:black;stroke-width:1" />
<polygon points="31.25,32.474999999999994 29.6875,35.18124999999999 32.8125,35.18124999999999" style="fill:white;stroke:black;stroke-width:1" />
<polygon points="28.125,37.887499999999996 31.25,37.887499999999996 29.6875,35.18124999999999" style="fill:white;stroke:black;stroke-width:1" />
<polygon points="34.375,37.887499999999996 32.8125,35.18124999999999 31.25,37.887499999999996" style="fill:white;stroke:black;stroke-width:1" />
<polygon points="50.0,43.3 46.875,37.887499999999996 43.75,43.3" style="fill:white;stroke:black;stroke-width:1" />
<polygon points="43.75,32.474999999999994 40.625,37.887499999999996 46.875,37.887499999999996" style="fill:white;stroke:black;stroke-width:1" />
<polygon points="37.5,43.3 43.75,43.3 40.625,37.887499999999996" style="fill:white;stroke:black;stroke-width:1" />
<polygon points="50.0,43.3 48.4375,40.59375 46.875,43.3" style="fill:white;stroke:black;stroke-width:1" />
<polygon points="46.875,37.887499999999996 45.3125,40.59375 48.4375,40.59375" style="fill:white;stroke:black;stroke-width:1" />
<polygon points="43.75,43.3 46.875,43.3 45.3125,40.59375" style="fill:white;stroke:black;stroke-width:1" />
<polygon points="43.75,32.474999999999994 42.1875,35.18124999999999 45.3125,35.18124999999999" style="fill:white;stroke:black;stroke-width:1" />
<polygon points="40.625,37.887499999999996 43.75,37.887499999999996 42.1875,35.18124999999999" style="fill:white;stroke:black;stroke-width:1" />
<polygon points="46.875,37.887499999999996 45.3125,35.18124999999999 43.75,37.887499999999996" style="fill:white;stroke:black;stroke-width:1" />
<polygon points="37.5,43.3 40.625,43.3 39.0625,40.59375" style="fill:white;stroke:black;stroke-width:1" />
<polygon points="43.75,43.3 42.1875,40.59375 40.625,43.3" style="fill:white;stroke:black;stroke-width:1" />
<polygon points="40.625,37.887499999999996 39.0625,40.59375 42.1875,40.59375" style="fill:white;stroke:black;stroke-width:1" />
<polygon points="37.5,21.65 34.375,27.062499999999996 40.625,27.062499999999996" style="fill:white;stroke:black;stroke-width:1" />
<polygon points="31.25,32.474999999999994 37.5,32.474999999999994 34.375,27.062499999999996" style="fill:white;stroke:black;stroke-width:1" />
<polygon points="43.75,32.474999999999994 40.625,27.062499999999996 37.5,32.474999999999994" style="fill:white;stroke:black;stroke-width:1" />
<polygon points="37.5,21.65 35.9375,24.356249999999996 39.0625,24.356249999999996" style="fill:white;stroke:black;stroke-width:1" />
<polygon points="34.375,27.062499999999996 37.5,27.062499999999996 35.9375,24.356249999999996" style="fill:white;stroke:black;stroke-width:1" />
<polygon points="40.625,27.062499999999996 39.0625,24.356249999999996 37.5,27.062499999999996" style="fill:white;stroke:black;stroke-width:1" />
<polygon points="31.25,32.474999999999994 34.375,32.474999999999994 32.8125,29.768749999999997" style="fill:white;stroke:black;stroke-width:1" />
<polygon points="37.5,32.474999999999994 35.9375,29.768749999999997 34.375,32.474999999999994" style="fill:white;stroke:black;stroke-width:1" />
<polygon points="34.375,27.062499999999996 32.8125,29.768749999999997 35.9375,29.768749999999997" style="fill:white;stroke:black;stroke-width:1" />
<polygon points="43.75,32.474999999999994 42.1875,29.768749999999997 40.625,32.474999999999994" style="fill:white;stroke:black;stroke-width:1" />
<polygon points="40.625,27.062499999999996 39.0625,29.768749999999997 42.1875,29.768749999999997" style="fill:white;stroke:black;stroke-width:1" />
<polygon points="37.5,32.474999999999994 40.625,32.474999999999994 39.0625,29.768749999999997" style="fill:white;stroke:black;stroke-width:1" />
<polygon points="75.0,43.3 68.75,32.474999999999994 62.5,43.3" style="fill:white;stroke:black;stroke-width:1" />
<polygon points="62.5,21.65 56.25,32.474999999999994 68.75,32.474999999999994" style="fill:white;stroke:black;stroke-width:1" />
<polygon points="50.0,43.3 62.5,43.3 56.25,32.474999999999994" style="fill:white;stroke:black;stroke-width:1" />
<polygon points="75.0,43.3 71.875,37.887499999999996 68.75,43.3" style="fill:white;stroke:black;stroke-width:1" />
<polygon points="68.75,32.474999999999994 65.625,37.887499999999996 71.875,37.887499999999996" style="fill:white;stroke:black;stroke-width:1" />
<polygon points="62.5,43.3 68.75,43.3 65.625,37.887499999999996" style="fill:white;stroke:black;stroke-width:1" />
<polygon points="75.0,43.3 73.4375,40.59375 71.875,43.3" style="fill:white;stroke:black;stroke-width:1" />
<polygon points="71.875,37.887499999999996 70.3125,40.59375 73.4375,40.59375" style="fill:white;stroke:black;stroke-width:1" />
<polygon points="68.75,43.3 71.875,43.3 70.3125,40.59375" style="fill:white;stroke:black;stroke-width:1" />
<polygon points="68.75,32.474999999999994 67.1875,35.18124999999999 70.3125,35.18124999999999" style="fill:white;stroke:black;stroke-width:1" />
<polygon points="65.625,37.887499999999996 68.75,37.887499999999996 67.1875,35.18124999999999" style="fill:white;stroke:black;stroke-width:1" />
<polygon points="71.875,37.887499999999996 70.3125,35.18124999999999 68.75,37.887499999999996" style="fill:white;stroke:black;stroke-width:1" />
<polygon points="62.5,43.3 65.625,43.3 64.0625,40.59375" style="fill:white;stroke:black;stroke-width:1" />
<polygon points="68.75,43.3 67.1875,40.59375 65.625,43.3" style="fill:white;stroke:black;stroke-width:1" />
<polygon points="65.625,37.887499999999996 64.0625,40.59375 67.1875,40.59375" style="fill:white;stroke:black;stroke-width:1" />
<polygon points="62.5,21.65 59.375,27.062499999999996 65.625,27.062499999999996" style="fill:white;stroke:black;stroke-width:1" />
<polygon points="56.25,32.474999999999994 62.5,32.474999999999994 59.375,27.062499999999996" style="fill:white;stroke:black;stroke-width:1" />
<polygon points="68.75,32.474999999999994 65.625,27.062499999999996 62.5,32.474999999999994" style="fill:white;stroke:black;stroke-width:1" />
<polygon points="62.5,21.65 60.9375,24.356249999999996 64.0625,24.356249999999996" style="fill:white;stroke:black;stroke-width:1" />
<polygon points="59.375,27.062499999999996 62.5,27.062499999999996 60.9375,24.356249999999996" style="fill:white;stroke:black;stroke-width:1" />
<polygon points="65.625,27.062499999999996 64.0625,24.356249999999996 62.5,27.062499999999996" style="fill:white;stroke:black;stroke-width:1" />
<polygon points="56.25,32.474999999999994 59.375,32.474999999999994 57.8125,29.768749999999997" style="fill:white;stroke:black;stroke-width:1" />
<polygon points="62.5,32.474999999999994 60.9375,29.768749999999997 59.375,32.474999999999994" style="fill:white;stroke:black;stroke-width:1" />
<polygon points="59.375,27.062499999999996 57.8125,29.768749999999997 60.9375,29.768749999999997" style="fill:white;stroke:black;stroke-width:1" />
<polygon points="68.75,32.474999999999994 67.1875,29.768749999999997 65.625,32.474999999999994" style="fill:white;stroke:black;stroke-width:1" />
<polygon points="65.625,27.062499999999996 64.0625,29.768749999999997 67.1875,29.768749999999997" style="fill:white;stroke:black;stroke-width:1" />
<polygon points="62.5,32.474999999999994 65.625,32.474999999999994 64.0625,29.768749999999997" style="fill:white;stroke:black;stroke-width:1" />
<polygon points="50.0,43.3 56.25,43.3 53.125,37.887499999999996" style="fill:white;stroke:black;stroke-width:1" />
<polygon points="62.5,43.3 59.375,37.887499999999996 56.25,43.3" style="fill:white;stroke:black;stroke-width:1" />
<polygon points="56.25,32.474999999999994 53.125,37.887499999999996 59.375,37.887499999999996" style="fill:white;stroke:black;stroke-width:1" />
<polygon points="50.0,43.3 53.125,43.3 51.5625,40.59375" style="fill:white;stroke:black;stroke-width:1" />
<polygon points="56.25,43.3 54.6875,40.59375 53.125,43.3" style="fill:white;stroke:black;stroke-width:1" />
<polygon points="53.125,37.887499999999996 51.5625,40.59375 54.6875,40.59375" style="fill:white;stroke:black;stroke-width:1" />
<polygon points="62.5,43.3 60.9375,40.59375 59.375,43.3" style="fill:white;stroke:black;stroke-width:1" />
<polygon points="59.375,37.887499999999996 57.8125,40.59375 60.9375,40.59375" style="fill:white;stroke:black;stroke-width:1" />
<polygon points="56.25,43.3 59.375,43.3 57.8125,40.59375" style="fill:white;stroke:black;stroke-width:1" />
<polygon points="56.25,32.474999999999994 54.6875,35.18124999999999 57.8125,35.18124999999999" style="fill:white;stroke:black;stroke-width:1" />
<polygon points="53.125,37.887499999999996 56.25,37.887499999999996 54.6875,35.18124999999999" style="fill:white;stroke:black;stroke-width:1" />
<polygon points="59.375,37.887499999999996 57.8125,35.18124999999999 56.25,37.887499999999996" style="fill:white;stroke:black;stroke-width:1" />
</svg>
